<svg id="Ebene_1" data-name="Ebene 1" xmlns="http://www.w3.org/2000/svg" xmlns:xlink="http://www.w3.org/1999/xlink" viewBox="0 0 284.35 131.21"><defs><style>.cls-1{fill:none;}.cls-2{fill:#4a4a49;}.cls-3{clip-path:url(#clip-path);}.cls-4{fill:#009fe3;}.cls-5{fill:#9d9d9c;}.cls-6{fill:#f39200;}.cls-7{fill:#ca181a;}.cls-8{fill:#3aaa35;}</style><clipPath id="clip-path" transform="translate(-222 -192.7)"><rect class="cls-1" x="222" y="192.7" width="286.28" height="131.21"/></clipPath></defs><title>4c_bif_d</title><path class="cls-2" d="M304.45,280.78h-3.23v-11.3h3.68c1.85,0,3.68.64,3.68,2.79a2.55,2.55,0,0,1-2.18,2.61,2.71,2.71,0,0,1,2.49,2.69C308.87,280.21,306.65,280.78,304.45,280.78Zm0-10H303v3.59h1.22c1.25,0,2.49-.42,2.49-1.9C306.72,271.14,305.6,270.76,304.48,270.76Zm-.44,4.78h-1v4h1.19c1.3,0,2.79-.36,2.79-1.95S305.43,275.53,304,275.53Z" transform="translate(-222 -192.7)"/><path class="cls-2" d="M314.54,281c-2.71,0-4.17-1.88-4.17-4.46a4,4,0,0,1,4.17-4.37c2.68,0,4.17,1.73,4.17,4.37S317.22,281,314.54,281Zm0-7.55c-1.69,0-2.34,1.61-2.34,3.1s.64,3.17,2.34,3.17,2.34-1.61,2.34-3.17S316.28,273.41,314.54,273.41Z" transform="translate(-222 -192.7)"/><path class="cls-2" d="M321.77,277a2.59,2.59,0,0,0,2.62,2.79,5.65,5.65,0,0,0,2.46-.59l.1,1.32a8.4,8.4,0,0,1-2.83.46c-2.78,0-4.1-1.81-4.1-4.46,0-2.32,1.47-4.37,3.83-4.37,2.52,0,3.54,1.95,3.54,4.34V277Zm2.1-3.68c-1.44,0-2.12,1.54-2.12,2.63h4C325.77,274.74,325.31,273.31,323.87,273.31Z" transform="translate(-222 -192.7)"/><path class="cls-2" d="M334.61,280.78v-5c0-1.2-.22-2.32-1.68-2.32s-2.07,1.37-2.07,2.69v4.62h-1.69V268.57h1.69v5.15a2.75,2.75,0,0,1,2.63-1.58c2,0,2.83,1.35,2.83,3.29v5.35Z" transform="translate(-222 -192.7)"/><path class="cls-2" d="M343.13,273.82a1.92,1.92,0,0,0-.69-.1c-1.66,0-2.1,1.71-2.1,3v4h-1.69v-6.52a18.7,18.7,0,0,0-.08-1.95h1.59l.05,1.63a2.68,2.68,0,0,1,2.3-1.79,2.55,2.55,0,0,1,.71.07Z" transform="translate(-222 -192.7)"/><path class="cls-2" d="M344.6,270.57v-1.64h1.69v1.64Zm0,10.21v-8.47h1.69v8.47Z" transform="translate(-222 -192.7)"/><path class="cls-2" d="M354,280.78v-5c0-1.19-.22-2.32-1.68-2.32s-2.07,1.37-2.07,2.71v4.61h-1.69v-6.52a18.7,18.7,0,0,0-.08-1.95h1.59l.05,1.46a3,3,0,0,1,2.74-1.63c2.1,0,2.85,1.34,2.85,3.29v5.35Z" transform="translate(-222 -192.7)"/><path class="cls-2" d="M361.13,284.63a9.83,9.83,0,0,1-2.88-.46l.1-1.44a5.56,5.56,0,0,0,2.52.61c2,0,2.76-1.24,2.76-3v-1a3.06,3.06,0,0,1-2.63,1.47c-2.47,0-3.44-2.15-3.44-4.27s1-4.37,3.47-4.37a2.8,2.8,0,0,1,2.66,1.58v-1.41h1.63v8C365.33,283.05,363.92,284.63,361.13,284.63Zm.41-11.18c-1.74,0-2.13,1.66-2.13,3.08s.41,2.95,2.12,2.95,2.17-1.66,2.17-2.95S363.18,273.45,361.53,273.45Z" transform="translate(-222 -192.7)"/><path class="cls-2" d="M368.88,277a2.59,2.59,0,0,0,2.62,2.79,5.65,5.65,0,0,0,2.46-.59l.1,1.32a8.4,8.4,0,0,1-2.83.46c-2.78,0-4.1-1.81-4.1-4.46,0-2.32,1.47-4.37,3.83-4.37,2.52,0,3.54,1.95,3.54,4.34V277Zm2.1-3.68c-1.44,0-2.12,1.54-2.12,2.63h4C372.88,274.74,372.42,273.31,371,273.31Z" transform="translate(-222 -192.7)"/><path class="cls-2" d="M380.77,273.82a1.92,1.92,0,0,0-.69-.1c-1.66,0-2.1,1.71-2.1,3v4h-1.69v-6.52a18.56,18.56,0,0,0-.08-1.95h1.59l.05,1.63a2.68,2.68,0,0,1,2.3-1.79,2.56,2.56,0,0,1,.71.07Z" transform="translate(-222 -192.7)"/><path class="cls-2" d="M387.19,280.78v-11.3H389v11.3Z" transform="translate(-222 -192.7)"/><path class="cls-2" d="M397,280.78v-5c0-1.19-.22-2.32-1.68-2.32s-2.07,1.37-2.07,2.71v4.61h-1.69v-6.52a18.57,18.57,0,0,0-.08-1.95H393l.05,1.46a3,3,0,0,1,2.74-1.63c2.1,0,2.85,1.34,2.85,3.29v5.35Z" transform="translate(-222 -192.7)"/><path class="cls-2" d="M404.06,284.63a9.83,9.83,0,0,1-2.88-.46l.1-1.44a5.57,5.57,0,0,0,2.52.61c2,0,2.76-1.24,2.76-3v-1a3.06,3.06,0,0,1-2.62,1.47c-2.47,0-3.44-2.15-3.44-4.27s1-4.37,3.47-4.37a2.81,2.81,0,0,1,2.66,1.58v-1.41h1.63v8C408.26,283.05,406.85,284.63,404.06,284.63Zm.41-11.18c-1.75,0-2.13,1.66-2.13,3.08s.41,2.95,2.12,2.95,2.17-1.66,2.17-2.95S406.11,273.45,404.46,273.45Z" transform="translate(-222 -192.7)"/><path class="cls-2" d="M411.81,277a2.59,2.59,0,0,0,2.62,2.79,5.65,5.65,0,0,0,2.46-.59l.1,1.32a8.4,8.4,0,0,1-2.83.46c-2.78,0-4.1-1.81-4.1-4.46,0-2.32,1.47-4.37,3.83-4.37,2.52,0,3.54,1.95,3.54,4.34V277Zm2.1-3.68c-1.44,0-2.12,1.54-2.12,2.63h4C415.81,274.74,415.35,273.31,413.91,273.31Z" transform="translate(-222 -192.7)"/><path class="cls-2" d="M419.21,280.78V268.57h1.69v12.21Z" transform="translate(-222 -192.7)"/><path class="cls-2" d="M428.67,280.78v-5c0-1.2-.22-2.32-1.68-2.32s-2.07,1.37-2.07,2.69v4.62h-1.69V268.57h1.69v5.15a2.75,2.75,0,0,1,2.62-1.58c2,0,2.83,1.35,2.83,3.29v5.35Z" transform="translate(-222 -192.7)"/><path class="cls-2" d="M433.93,277a2.59,2.59,0,0,0,2.63,2.79,5.65,5.65,0,0,0,2.46-.59l.1,1.32a8.4,8.4,0,0,1-2.83.46c-2.78,0-4.1-1.81-4.1-4.46,0-2.32,1.47-4.37,3.83-4.37,2.52,0,3.54,1.95,3.54,4.34V277Zm2.1-3.68c-1.44,0-2.12,1.54-2.12,2.63h4C437.93,274.74,437.47,273.31,436,273.31Z" transform="translate(-222 -192.7)"/><path class="cls-2" d="M441.33,270.57v-1.64H443v1.64Zm0,10.21v-8.47H443v8.47Z" transform="translate(-222 -192.7)"/><path class="cls-2" d="M455.53,280.78v-5.44c0-1-.32-1.88-1.51-1.88-1.39,0-1.88,1.39-1.88,2.69v4.62h-1.69v-5.44c0-1-.32-1.88-1.51-1.88-1.39,0-1.9,1.39-1.9,2.69v4.62h-1.69v-6.52a18.84,18.84,0,0,0-.08-1.95h1.59l.05,1.46a2.76,2.76,0,0,1,2.59-1.63,2.44,2.44,0,0,1,2.47,1.73,2.82,2.82,0,0,1,2.59-1.73c1.85,0,2.68,1.25,2.68,3v5.64Z" transform="translate(-222 -192.7)"/><path class="cls-2" d="M466.35,270.86v3.56h4.3v1.34h-4.3v5H464.5v-11.3h6.33v1.37Z" transform="translate(-222 -192.7)"/><path class="cls-2" d="M476,281c-2.71,0-4.17-1.88-4.17-4.46a4,4,0,0,1,4.17-4.37c2.68,0,4.17,1.73,4.17,4.37S478.73,281,476,281Zm0-7.55c-1.69,0-2.34,1.61-2.34,3.1s.64,3.17,2.34,3.17,2.34-1.61,2.34-3.17S477.79,273.41,476,273.41Z" transform="translate(-222 -192.7)"/><path class="cls-2" d="M487.48,280.78v-5c0-1.19-.22-2.32-1.68-2.32s-2.07,1.37-2.07,2.71v4.61H482v-6.52a18.59,18.59,0,0,0-.08-1.95h1.59l.05,1.46a3,3,0,0,1,2.74-1.63c2.1,0,2.85,1.34,2.85,3.29v5.35Z" transform="translate(-222 -192.7)"/><path class="cls-2" d="M497.27,280.78l-.1-1.41a2.8,2.8,0,0,1-2.66,1.59c-2.56,0-3.51-2.22-3.51-4.46s.95-4.37,3.51-4.37a2.77,2.77,0,0,1,2.56,1.58v-5.15h1.69v9.67c0,.93,0,1.75.08,2.54Zm-2.32-7.33c-1.75,0-2.12,1.66-2.12,3.08s.41,3.13,2.13,3.13,2.15-1.79,2.15-3.13S496.59,273.45,494.95,273.45Z" transform="translate(-222 -192.7)"/><path class="cls-2" d="M503.09,281a7.92,7.92,0,0,1-2.59-.41l.1-1.36a5,5,0,0,0,2.32.56c.78,0,1.75-.37,1.75-1.27,0-1.91-4.17-1.29-4.17-3.95,0-1.74,1.73-2.4,3.2-2.4a7.42,7.42,0,0,1,2.29.37l-.1,1.24a5.67,5.67,0,0,0-2-.41c-.75,0-1.66.2-1.66,1.15,0,1.47,4.17,1,4.17,3.9C506.35,280.17,504.67,281,503.09,281Z" transform="translate(-222 -192.7)"/><path class="cls-2" d="M303.26,299.31a6,6,0,0,1-2.49-.47l.08-1.12a4.31,4.31,0,0,0,2.46.64c1.47,0,2.56-.68,2.56-2.24,0-1.07-.93-1.66-2-2.27l-1.17-.66c-1.05-.59-2-1.34-2-2.64,0-1.93,1.78-2.9,3.54-2.9a6,6,0,0,1,2.12.36l-.1,1a4.51,4.51,0,0,0-2-.42c-1.25,0-2.46.47-2.46,1.9,0,.91.73,1.46,1.68,2l1.17.66c1.19.66,2.35,1.47,2.35,3C306.94,298.16,305.28,299.31,303.26,299.31Z" transform="translate(-222 -192.7)"/><path class="cls-2" d="M311.29,299.31c-1.68,0-1.83-1.27-1.83-2.74v-5h-1.61v-.81h1.61v-1.95l.91-.32v2.27h1.91v.81h-1.91V297c0,.76.2,1.44,1.1,1.44a2.3,2.3,0,0,0,.95-.24l.07.88A3.31,3.31,0,0,1,311.29,299.31Z" transform="translate(-222 -192.7)"/><path class="cls-2" d="M314.15,288.74v-1.35h.91v1.35Zm0,10.38v-8.42h.91v8.42Z" transform="translate(-222 -192.7)"/><path class="cls-2" d="M321.35,287.79a2,2,0,0,0-.81-.17c-1.34,0-1.24,1.44-1.24,1.86v1.22h1.9v.81h-1.9v7.6h-.92v-7.6h-1.66v-.81h1.66v-1.13c0-1.07.08-2.83,2.13-2.83a2.17,2.17,0,0,1,.93.17Z" transform="translate(-222 -192.7)"/><path class="cls-2" d="M325.23,299.31c-1.68,0-1.83-1.27-1.83-2.74v-5h-1.61v-.81h1.61v-1.95l.91-.32v2.27h1.91v.81h-1.91V297c0,.76.2,1.44,1.1,1.44a2.3,2.3,0,0,0,.95-.24l.07.88A3.31,3.31,0,0,1,325.23,299.31Z" transform="translate(-222 -192.7)"/><path class="cls-2" d="M333.61,299.12l-.05-1.46a2.92,2.92,0,0,1-2.71,1.64c-2.18,0-2.79-1.51-2.79-3.46v-5.15H329v5c0,1.42.29,2.71,2,2.71,1.88,0,2.47-1.61,2.47-3.22v-4.51h.91v6.42a19.67,19.67,0,0,0,.08,2Z" transform="translate(-222 -192.7)"/><path class="cls-2" d="M342.35,299.12v-5c0-1.42-.3-2.69-2-2.69-1.88,0-2.49,1.59-2.49,3.2v4.5h-.91V292.7a19.68,19.68,0,0,0-.08-2h.83l.05,1.47a2.94,2.94,0,0,1,2.73-1.64c2.19,0,2.81,1.49,2.81,3.44v5.15Z" transform="translate(-222 -192.7)"/><path class="cls-2" d="M348.44,303a8.16,8.16,0,0,1-2.46-.44l.1-1a5.36,5.36,0,0,0,2.4.59c2.08,0,2.81-1.46,2.81-3.34v-1.13a3,3,0,0,1-2.59,1.51c-2.49,0-3.4-2.18-3.4-4.23,0-2.24.95-4.35,3.44-4.35a2.75,2.75,0,0,1,2.63,1.59v-1.42h.85v8C352.22,301.27,351.15,303,348.44,303Zm.37-11.55c-2,0-2.51,1.81-2.51,3.47s.51,3.35,2.49,3.35,2.54-1.88,2.54-3.35S350.66,291.42,348.82,291.42Z" transform="translate(-222 -192.7)"/><path class="cls-2" d="M363,287.79a2,2,0,0,0-.81-.17c-1.34,0-1.24,1.44-1.24,1.86v1.22h1.9v.81h-1.9v7.6H360v-7.6h-1.66v-.81H360v-1.13c0-1.07.08-2.83,2.13-2.83a2.17,2.17,0,0,1,.93.17Z" transform="translate(-222 -192.7)"/><path class="cls-2" d="M369.93,299.12l-.05-1.46a2.92,2.92,0,0,1-2.71,1.64c-2.18,0-2.79-1.51-2.79-3.46v-5.15h.91v5c0,1.42.29,2.71,2,2.71,1.88,0,2.47-1.61,2.47-3.22v-4.51h.92v6.42a19.82,19.82,0,0,0,.08,2Zm-4.06-10.38v-1.35h.92v1.35Zm2.44,0v-1.35h.91v1.35Z" transform="translate(-222 -192.7)"/><path class="cls-2" d="M376.91,291.6a2.25,2.25,0,0,0-.66-.1c-1.76,0-2.08,2-2.08,3.32v4.3h-.91V292.7a19.57,19.57,0,0,0-.08-2H374l.07,1.58a2.58,2.58,0,0,1,2.18-1.74,2.66,2.66,0,0,1,.73.07Z" transform="translate(-222 -192.7)"/><path class="cls-2" d="M392.95,299.12v-5.59c0-1.2-.44-2.12-1.78-2.12-1.64,0-2.27,1.63-2.27,3.2v4.5H388v-5.59c0-1.2-.44-2.12-1.78-2.12-1.64,0-2.27,1.63-2.27,3.2v4.5H383V292.7a19.57,19.57,0,0,0-.08-2h.83l.05,1.47a2.7,2.7,0,0,1,2.49-1.64,2.38,2.38,0,0,1,2.42,1.79,2.82,2.82,0,0,1,2.54-1.79,2.53,2.53,0,0,1,2.59,2.78v5.81Z" transform="translate(-222 -192.7)"/><path class="cls-2" d="M396.91,295.18c0,1.69.88,3.27,2.76,3.27a5.33,5.33,0,0,0,2.34-.61l.1,1a6.71,6.71,0,0,1-2.46.44c-2.69,0-3.74-2-3.74-4.42,0-2.07,1.22-4.35,3.44-4.35s3.2,2,3.2,4.13v.51Zm2.46-3.78c-1.61,0-2.46,1.76-2.46,3h4.64C401.55,293,401,291.4,399.37,291.4Z" transform="translate(-222 -192.7)"/><path class="cls-2" d="M410.17,299.12l-.12-1.41a2.77,2.77,0,0,1-2.63,1.59c-2.49,0-3.4-2.27-3.4-4.42s.92-4.35,3.46-4.35a2.79,2.79,0,0,1,2.54,1.59v-5.22h.91v9.45c0,.9,0,1.83.09,2.76Zm-2.66-7.71c-2,0-2.49,1.81-2.49,3.47s.51,3.54,2.49,3.54,2.54-2,2.54-3.54S409.36,291.42,407.51,291.42Z" transform="translate(-222 -192.7)"/><path class="cls-2" d="M413.51,288.74v-1.35h.91v1.35Zm0,10.38v-8.42h.91v8.42Z" transform="translate(-222 -192.7)"/><path class="cls-2" d="M416.22,299.12v-.75l4.81-6.86h-4.61v-.81h5.66v.76l-4.83,6.84h4.84v.81Z" transform="translate(-222 -192.7)"/><path class="cls-2" d="M423.89,288.74v-1.35h.91v1.35Zm0,10.38v-8.42h.91v8.42Z" transform="translate(-222 -192.7)"/><path class="cls-2" d="M432.8,299.12v-5c0-1.42-.3-2.69-2-2.69-1.88,0-2.49,1.59-2.49,3.2v4.5h-.91V292.7a19.83,19.83,0,0,0-.08-2h.83l.05,1.47a2.94,2.94,0,0,1,2.73-1.64c2.18,0,2.81,1.49,2.81,3.44v5.15Z" transform="translate(-222 -192.7)"/><path class="cls-2" d="M436.29,288.74v-1.35h.91v1.35Zm0,10.38v-8.42h.91v8.42Z" transform="translate(-222 -192.7)"/><path class="cls-2" d="M441.38,299.31a6.17,6.17,0,0,1-2.29-.37l.1-1a4.68,4.68,0,0,0,2.13.53,1.63,1.63,0,0,0,1.83-1.51c0-2.13-4-1.61-4-4.15,0-1.54,1.36-2.24,2.69-2.24a5.64,5.64,0,0,1,2,.37l-.1.9a4.68,4.68,0,0,0-1.79-.39c-.86,0-1.8.27-1.8,1.35,0,1.63,4,1.34,4,4.15A2.54,2.54,0,0,1,441.38,299.31Z" transform="translate(-222 -192.7)"/><path class="cls-2" d="M449.48,299.31c-2.54,0-3.91-2-3.91-4.42s1.49-4.35,4-4.35a6,6,0,0,1,2,.36l-.08.95a4.29,4.29,0,0,0-1.78-.42c-2.1,0-3.13,1.51-3.13,3.47s1.05,3.54,3,3.54a5.36,5.36,0,0,0,1.86-.37l.08.93A6.21,6.21,0,0,1,449.48,299.31Z" transform="translate(-222 -192.7)"/><path class="cls-2" d="M458.86,299.12v-5c0-1.42-.3-2.69-2-2.69-1.88,0-2.49,1.59-2.49,3.2v4.5h-.92V286.91h.92v5.22a2.72,2.72,0,0,1,2.61-1.59c2.08,0,2.81,1.49,2.81,3.44v5.15Z" transform="translate(-222 -192.7)"/><path class="cls-2" d="M462.82,295.18c0,1.69.88,3.27,2.76,3.27a5.33,5.33,0,0,0,2.34-.61l.1,1a6.71,6.71,0,0,1-2.46.44c-2.69,0-3.74-2-3.74-4.42,0-2.07,1.22-4.35,3.44-4.35s3.2,2,3.2,4.13v.51Zm2.45-3.78c-1.61,0-2.45,1.76-2.45,3h4.64C467.46,293,466.89,291.4,465.28,291.4Z" transform="translate(-222 -192.7)"/><path class="cls-2" d="M306.48,317.65c-3.54,0-5.71-2.35-5.71-5.83a5.51,5.51,0,0,1,5.71-5.83,7.32,7.32,0,0,1,2.95.58l-.1,1a5.91,5.91,0,0,0-2.9-.61c-2.91,0-4.59,2.08-4.59,4.88s1.68,4.88,4.66,4.88a6.67,6.67,0,0,0,2.44-.42v-4h-2.71v-.9H310v5.57A8.52,8.52,0,0,1,306.48,317.65Z" transform="translate(-222 -192.7)"/><path class="cls-2" d="M316,309.94a2.25,2.25,0,0,0-.66-.1c-1.76,0-2.08,2-2.08,3.32v4.3h-.91V311a19.68,19.68,0,0,0-.08-2h.83l.07,1.58a2.58,2.58,0,0,1,2.19-1.74,2.67,2.67,0,0,1,.73.07Z" transform="translate(-222 -192.7)"/><path class="cls-2" d="M323.16,317.46l-.05-1.46a2.92,2.92,0,0,1-2.71,1.64c-2.18,0-2.79-1.51-2.79-3.46V309h.91v5c0,1.42.29,2.71,2,2.71,1.88,0,2.47-1.61,2.47-3.22V309h.91v6.42a19.67,19.67,0,0,0,.08,2Z" transform="translate(-222 -192.7)"/><path class="cls-2" d="M331.9,317.46v-5c0-1.42-.3-2.69-2-2.69-1.88,0-2.49,1.59-2.49,3.2v4.5h-.91V311a19.71,19.71,0,0,0-.08-2h.83l.05,1.47a2.94,2.94,0,0,1,2.73-1.64c2.19,0,2.81,1.49,2.81,3.44v5.15Z" transform="translate(-222 -192.7)"/><path class="cls-2" d="M341,317.46l-.12-1.41a2.77,2.77,0,0,1-2.63,1.59c-2.49,0-3.4-2.27-3.4-4.42s.91-4.35,3.46-4.35a2.79,2.79,0,0,1,2.54,1.59v-5.22h.91v9.45c0,.9,0,1.83.08,2.76Zm-2.66-7.71c-2,0-2.49,1.81-2.49,3.47s.51,3.54,2.49,3.54,2.54-2,2.54-3.54S340.2,309.76,338.35,309.76Z" transform="translate(-222 -192.7)"/><path class="cls-2" d="M344.34,317.46V305.25h.91v12.21Z" transform="translate(-222 -192.7)"/><path class="cls-2" d="M352.54,317.46l-.05-1.37a2.85,2.85,0,0,1-2.61,1.56c-1.49,0-2.73-.76-2.73-2.37,0-2.15,2-2.91,4.67-2.91h.58v-.44c0-1.32-.44-2.19-1.88-2.19a4.11,4.11,0,0,0-2.39.66l-.1-.95a6.52,6.52,0,0,1,2.46-.58c2,0,2.83,1.13,2.83,3.12v3.73a12.2,12.2,0,0,0,.12,1.74Zm-.14-4.29h-.22c-1.61,0-4,.12-4,2.08,0,1,.83,1.52,1.8,1.52,1.9,0,2.46-1.42,2.46-3.08Z" transform="translate(-222 -192.7)"/><path class="cls-2" d="M358.54,321.31a8.16,8.16,0,0,1-2.46-.44l.1-1a5.36,5.36,0,0,0,2.4.59c2.08,0,2.81-1.46,2.81-3.34V316a3,3,0,0,1-2.59,1.51c-2.49,0-3.4-2.18-3.4-4.23,0-2.24.95-4.35,3.44-4.35a2.75,2.75,0,0,1,2.63,1.59V309h.85v8C362.31,319.62,361.25,321.31,358.54,321.31Zm.37-11.55c-2,0-2.51,1.81-2.51,3.47s.51,3.35,2.49,3.35,2.54-1.88,2.54-3.35S360.76,309.76,358.91,309.76Z" transform="translate(-222 -192.7)"/><path class="cls-2" d="M365.36,313.52c0,1.69.88,3.27,2.76,3.27a5.33,5.33,0,0,0,2.34-.61l.1,1a6.71,6.71,0,0,1-2.45.44c-2.69,0-3.74-2-3.74-4.42,0-2.07,1.22-4.35,3.44-4.35s3.2,2,3.2,4.13v.51Zm2.46-3.78c-1.61,0-2.46,1.76-2.46,3H370C370,311.33,369.43,309.74,367.82,309.74Z" transform="translate(-222 -192.7)"/><path class="cls-2" d="M378.42,317.46v-5c0-1.42-.3-2.69-2-2.69-1.88,0-2.49,1.59-2.49,3.2v4.5H373V311a19.57,19.57,0,0,0-.08-2h.83l.05,1.47a2.94,2.94,0,0,1,2.73-1.64c2.19,0,2.81,1.49,2.81,3.44v5.15Z" transform="translate(-222 -192.7)"/><path class="cls-2" d="M385.62,306.13a2,2,0,0,0-.81-.17c-1.34,0-1.24,1.44-1.24,1.86V309h1.9v.81h-1.9v7.6h-.92v-7.6H381V309h1.66v-1.13c0-1.07.08-2.83,2.13-2.83a2.16,2.16,0,0,1,.93.17Z" transform="translate(-222 -192.7)"/><path class="cls-2" d="M390.32,317.65c-2.58,0-3.81-2.07-3.81-4.42s1.35-4.35,3.81-4.35c2.61,0,3.81,1.95,3.81,4.35S392.88,317.65,390.32,317.65Zm0-7.89c-2,0-2.81,1.74-2.81,3.47s.83,3.54,2.81,3.54,2.81-1.83,2.81-3.54S392.36,309.76,390.32,309.76Z" transform="translate(-222 -192.7)"/><path class="cls-2" d="M399.84,309.94a2.26,2.26,0,0,0-.66-.1c-1.76,0-2.08,2-2.08,3.32v4.3h-.92V311a19.57,19.57,0,0,0-.08-2h.83l.07,1.58a2.58,2.58,0,0,1,2.18-1.74,2.67,2.67,0,0,1,.73.07Z" transform="translate(-222 -192.7)"/><path class="cls-2" d="M403.08,317.65a6.18,6.18,0,0,1-2.29-.37l.1-1a4.67,4.67,0,0,0,2.13.53,1.63,1.63,0,0,0,1.83-1.51c0-2.13-4-1.61-4-4.15,0-1.54,1.36-2.24,2.69-2.24a5.63,5.63,0,0,1,2,.37l-.1.9a4.68,4.68,0,0,0-1.79-.39c-.86,0-1.79.27-1.79,1.35,0,1.63,4,1.34,4,4.15A2.54,2.54,0,0,1,403.08,317.65Z" transform="translate(-222 -192.7)"/><path class="cls-2" d="M411.17,317.65c-2.54,0-3.91-2-3.91-4.42s1.49-4.35,4-4.35a6,6,0,0,1,2,.36l-.08.95a4.3,4.3,0,0,0-1.78-.42c-2.1,0-3.13,1.51-3.13,3.47s1,3.54,3,3.54a5.37,5.37,0,0,0,1.86-.37l.08.93A6.22,6.22,0,0,1,411.17,317.65Z" transform="translate(-222 -192.7)"/><path class="cls-2" d="M420.55,317.46v-5c0-1.42-.3-2.69-2-2.69-1.88,0-2.49,1.59-2.49,3.2v4.5h-.91V305.25H416v5.22a2.72,2.72,0,0,1,2.61-1.59c2.08,0,2.81,1.49,2.81,3.44v5.15Z" transform="translate(-222 -192.7)"/><path class="cls-2" d="M429.56,317.46l-.05-1.46a2.92,2.92,0,0,1-2.71,1.64c-2.18,0-2.79-1.51-2.79-3.46V309h.92v5c0,1.42.29,2.71,2,2.71,1.88,0,2.47-1.61,2.47-3.22V309h.91v6.42a19.53,19.53,0,0,0,.09,2Z" transform="translate(-222 -192.7)"/><path class="cls-2" d="M438.3,317.46v-5c0-1.42-.3-2.69-2-2.69-1.88,0-2.49,1.59-2.49,3.2v4.5h-.91V311a19.83,19.83,0,0,0-.08-2h.83l.05,1.47a2.94,2.94,0,0,1,2.73-1.64c2.18,0,2.81,1.49,2.81,3.44v5.15Z" transform="translate(-222 -192.7)"/><path class="cls-2" d="M444.4,321.31a8.15,8.15,0,0,1-2.46-.44l.1-1a5.36,5.36,0,0,0,2.4.59c2.08,0,2.81-1.46,2.81-3.34V316a3,3,0,0,1-2.59,1.51c-2.49,0-3.4-2.18-3.4-4.23,0-2.24.95-4.35,3.44-4.35a2.75,2.75,0,0,1,2.62,1.59V309h.85v8C448.17,319.62,447.11,321.31,444.4,321.31Zm.37-11.55c-2,0-2.51,1.81-2.51,3.47s.51,3.35,2.49,3.35,2.54-1.88,2.54-3.35S446.62,309.76,444.77,309.76Z" transform="translate(-222 -192.7)"/><g class="cls-3"><path class="cls-4" d="M308.74,244.74c-10.63,10.63-42-15.24-52-5.21l-8.92,8.92c10.63-10.63,42,15.24,52,5.21l8.92-8.92" transform="translate(-222 -192.7)"/><path class="cls-5" d="M285.32,268.16c-10.63,10.63-42-15.24-52-5.21l-8.92,8.92c10.63-10.63,42,15.24,52,5.21Z" transform="translate(-222 -192.7)"/><path class="cls-6" d="M280.12,216.11c-10.63,10.63,15.24,42,5.21,52l-8.92,8.92c10.63-10.63-15.24-42-5.21-52l8.92-8.92" transform="translate(-222 -192.7)"/><path class="cls-7" d="M256.7,239.53c-10.63,10.63,15.24,42,5.21,52L253,300.49c10.63-10.63-15.24-42-5.21-52l8.92-8.92" transform="translate(-222 -192.7)"/><path class="cls-8" d="M303.53,192.7c-10.63,10.63,15.24,42,5.21,52l-8.92,8.92c10.63-10.63-15.24-42-5.21-52Z" transform="translate(-222 -192.7)"/><path class="cls-6" d="M233.28,262.95c-10.63,10.63,15.24,42,5.21,52l-8.92,8.92c10.63-10.63-15.24-42-5.21-52l8.92-8.92" transform="translate(-222 -192.7)"/></g></svg>