<svg xmlns="http://www.w3.org/2000/svg" width="500" height="500" fill="none" viewBox="0 0 500 500">
  <path fill="#737373" d="M229.802 289.365c-.448.02-1.099.026-1.937-.016a22.18 22.18 0 0 1-2.974-.49c-.365-.078-.724-.203-1.099-.328-.375-.13-.756-.271-1.146-.432 0 0 1.443-1.922 2.818-3.88 1.38-1.953 2.692-3.933 2.692-3.933s-.396.464-1 1.157a113.248 113.248 0 0 1-4.661 4.979c-.334.333-.615.609-.807.802l-.308.302c-.041-.026-.083-.042-.12-.068a17.3 17.3 0 0 1-1.859-1.172c-.302-.223-.609-.447-.901-.703a20.439 20.439 0 0 1-.844-.802l-.067-.067c.026.031 0 0 0 .005l-.026-.031-.105-.115-.213-.229-.245-.261s1.474-1.797 2.901-3.625c1.432-1.823 2.818-3.677 2.818-3.677s-.422.365-1.063.907c-.646.536-1.515 1.244-2.406 1.947-.443.344-.891.693-1.318 1.016a74.38 74.38 0 0 1-1.161.859c-.682.495-1.151.823-1.151.823a10.786 10.786 0 0 0-.261-.395l-.171-.261c-.053-.083-.105-.177-.157-.266a29.695 29.695 0 0 1-.317-.531c-.099-.182-.193-.364-.292-.547l-.073-.135c-.036-.073-.073-.141-.073-.141l-.125-.291c-.083-.193-.172-.386-.255-.578a28.179 28.179 0 0 0-.229-.584 26.014 26.014 0 0 1-.563-1.708s1.688-1.682 3.323-3.401c1.646-1.714 3.245-3.459 3.245-3.459s-1.693 1.23-3.469 2.396a97.882 97.882 0 0 1-3.578 2.224c-.052-.328-.104-.651-.146-.974a20.303 20.303 0 0 1-.14-1.26 47.125 47.125 0 0 1-.073-1.287c-.037-.864-.063-1.724-.089-2.572-.01-.86-.026-1.73-.052-2.568a49.571 49.571 0 0 0-.062-1.25c-.021-.412-.037-.839-.073-1.25a20.414 20.414 0 0 0-.308-2.386c-.052-.395-.14-.776-.224-1.145-.036-.188-.099-.37-.151-.553-.052-.177-.099-.359-.166-.531-.063-.166-.136-.333-.188-.51a2.01 2.01 0 0 0-.099-.255c-.036-.084-.073-.167-.104-.25l-.104-.245-.063-.146-.052-.104c-.078-.146-.151-.287-.229-.427l-.052-.11-.068-.109-.13-.219-.13-.213c-.047-.073-.083-.146-.13-.214-.172-.276-.328-.552-.516-.802-.094-.125-.182-.25-.271-.375-.099-.12-.192-.24-.286-.354a6.531 6.531 0 0 0-.287-.344c-.093-.114-.187-.224-.281-.338-.734-.881-1.562-1.573-2.281-2.193-.735-.599-1.469-1.052-2.042-1.438-.297-.177-.562-.343-.807-.468s-.448-.245-.625-.323c-.349-.167-.537-.25-.537-.25s.162.12.464.349c.151.109.323.26.531.432.209.161.427.375.682.599l.381.365c.14.125.281.26.427.401.291.276.593.583.901.927.151.166.302.349.453.531.156.187.323.37.484.568.318.395.636.817.933 1.281.072.12.145.234.224.349.083.114.161.234.234.354.078.12.156.24.229.365l.219.38c.146.255.276.531.411.802.037.068.063.135.094.203.026.073.063.141.094.208.031.068.068.136.099.198l.052.104.047.115c.062.151.13.307.192.458l.053.115c-.016-.031-.006 0-.006-.005l.006.015.01.026.016.063.078.219.078.224c.026.078.052.156.073.234.041.156.078.318.12.479.046.156.072.323.114.484.031.162.083.323.109.49.053.339.12.677.152 1.037.046.354.072.718.093 1.093.011.188.026.375.037.558l.031.567a21.157 21.157 0 0 1 .026 1.162c.005.198.01.396.005.593v.61c-.01.411-.01.812-.01 1.229v2.531c.005.433 0 .875.021 1.308.041.869.104 1.765.213 2.671.057.448.115.912.203 1.355.089.448.188.89.302 1.338.063.224.115.448.183.672.067.224.135.448.198.672.067.219.156.443.229.661.078.23.161.438.26.651.354.86.792 1.698 1.266 2.511l.187.302c.063.099.125.193.193.292.063.093.125.192.198.286l.203.281c.141.188.276.375.417.558.151.177.297.354.442.531.073.088.146.177.224.265l.235.266c.156.172.307.349.474.51.161.157.317.297.474.448l.234.219.12.11.031.026.042.041.067.058c.339.291.688.572 1.042.843.172.13.349.266.531.386.183.114.36.229.547.338.729.438 1.464.818 2.183 1.125a18.89 18.89 0 0 0 2.125.703c.682.177 1.322.323 1.942.386 1.235.135 2.282.14 3.125.088.427-.057.802-.088 1.12-.156.323-.057.594-.104.807-.156.427-.11.651-.162.651-.162l-.682.032Z"/>
  <path fill="#FF914D" d="M256.964 292.792c-.401.198-1 .453-1.787.755a9.025 9.025 0 0 1-.625.198c-.224.062-.453.125-.698.182a18.24 18.24 0 0 1-1.599.339c-.177.031-.364.062-.557.088-.094.016-.188.026-.287.037-.093.01-.192.015-.291.026-.391.026-.802.047-1.224.047 0 0 .562-2.334 1.052-4.667.25-1.172.474-2.339.646-3.224.161-.886.271-1.479.271-1.479s-.183.599-.464 1.484c-.286.87-.682 2.037-1.099 3.203a128.37 128.37 0 0 1-1.208 3.198c-.344.875-.584 1.453-.584 1.453-.046 0-.093-.005-.14-.005a8.317 8.317 0 0 1-1.073-.12c-.365-.062-.729-.13-1.094-.218-.37-.084-.739-.178-1.109-.292a9.12 9.12 0 0 1-1.099-.38l-.068-.026-.016-.006c.037.016 0-.005 0 0l-.036-.015-.141-.063c-.093-.047-.192-.088-.286-.13-.109-.047-.219-.099-.328-.146 0 0 .64-2.234 1.219-4.479.296-1.114.578-2.239.786-3.078l.339-1.406s-.063.125-.167.349c-.109.213-.266.526-.448.896-.38.75-.891 1.739-1.432 2.729-1.073 1.979-2.266 3.942-2.266 3.942-.13-.088-.26-.171-.396-.26l-.26-.177c-.084-.057-.167-.12-.25-.182-.167-.125-.334-.245-.505-.37-.157-.13-.323-.261-.485-.391l-.239-.198-.235-.208a28.775 28.775 0 0 1-.468-.412 17.05 17.05 0 0 1-.443-.447 26.594 26.594 0 0 1-1.193-1.365s.875-2.208 1.698-4.432c.828-2.219 1.599-4.453 1.599-4.453s-1.057 1.786-2.224 3.552c-.578.88-1.177 1.76-1.641 2.416-.229.328-.421.589-.557.782-.135.182-.213.291-.213.291a26.29 26.29 0 0 1-.516-.849 29.897 29.897 0 0 1-1.214-2.245c-.38-.77-.739-1.567-1.099-2.348-.171-.391-.354-.777-.536-1.162l-.271-.568-.265-.588a33.62 33.62 0 0 0-1.115-2.24c-.094-.182-.198-.349-.292-.536-.099-.183-.198-.36-.297-.537a15.433 15.433 0 0 0-.625-1.021c-.208-.328-.448-.635-.677-.937-.109-.156-.229-.302-.349-.453-.114-.146-.229-.297-.359-.432l-.37-.401a3.005 3.005 0 0 0-.198-.193l-.198-.177-.192-.183-.115-.104-.099-.073c-.12-.104-.245-.208-.37-.312l-.088-.083-.104-.073-.204-.157-.203-.151a4.49 4.49 0 0 0-.203-.146c-.271-.177-.526-.359-.807-.505-.136-.078-.261-.166-.391-.25a10.916 10.916 0 0 1-.396-.224c-.26-.151-.531-.276-.791-.401-.261-.12-.526-.229-.781-.333-.25-.115-.5-.219-.75-.313-.495-.187-.98-.338-1.443-.458-.24-.057-.459-.12-.672-.177a18.31 18.31 0 0 0-1.771-.349c-.354-.042-.672-.083-.937-.109-.276-.021-.506-.052-.698-.058-.38-.026-.584-.031-.584-.031l.558.151c.177.042.396.12.646.198.255.078.552.167.88.271.323.109.672.234 1.047.38.375.151.76.333 1.187.505.427.188.859.396 1.302.641.224.125.443.26.672.396.234.125.464.265.698.411.229.156.474.297.698.469.12.083.234.167.354.255.109.089.224.182.344.276.239.167.469.36.708.547.057.047.115.099.167.146l.172.156.166.151.084.078.088.084c.115.12.235.239.354.359l.089.089c-.026-.026 0 0-.005-.006l.01.016.021.021.036.047c.053.057.11.114.162.172l.161.172c.058.057.115.114.162.177.099.125.203.25.307.38.109.125.198.265.297.401.094.14.198.271.292.422.182.291.369.593.541.901.37.604.703 1.265 1.032 1.958.078.177.161.354.239.531.078.177.162.36.24.542.083.177.166.354.245.536.078.183.161.365.239.547.318.756.641 1.526.969 2.297.161.406.338.776.51 1.172.183.391.36.781.542 1.177a44.835 44.835 0 0 0 .917 1.807c.109.198.224.386.338.579.464.77.974 1.536 1.542 2.276.14.182.281.369.427.552.151.182.302.349.453.526.151.177.323.338.484.505.162.167.318.339.495.5.667.646 1.396 1.281 2.162 1.797.198.13.39.26.588.39.099.063.193.131.292.188.104.057.203.12.302.182l.604.354c.208.105.412.214.62.323.104.052.203.099.307.146.11.047.219.094.323.136.214.093.427.182.641.27.213.089.411.157.614.23.099.041.203.078.302.109l.151.057.042.016.037.01.02.011.079.026c.864.297 1.729.463 2.572.583a17.84 17.84 0 0 0 1.86.177c.198.005.396-.005.594-.01a20.565 20.565 0 0 0 2.224-.193c.348-.052.687-.099 1.01-.177.318-.078.63-.161.922-.25.594-.177 1.13-.365 1.614-.563.48-.192.912-.385 1.287-.593.37-.214.703-.396.974-.584.271-.177.5-.323.677-.458.349-.266.536-.401.536-.401s-.213.099-.619.292Z"/>
  <path fill="#737373" d="M278.391 174.969c-9.459-13.104-19.24-26.656-24.563-40.235l-1.573-4.005-2.979 3.099c-.141.146-13.875 14.479-27.411 34.396-7.969 11.734-14.323 23.094-18.891 33.771-1.911 4.474-3.708 9.021-5 13.719-5.797 21.067-5.844 36.281-6.193 38.281-.041.224-.083.453-.12.682-.031.229-.067.464-.098.693-.032.229-.047.469-.073.703-.021.234-.042.469-.052.703-.079.953-.016 1.896.067 2.833l.089.709c.015.114.026.229.047.349l.062.349c.016.119.037.234.057.349.021.114.047.229.073.338.063.229.12.453.177.677.032.11.063.224.094.339.031.109.068.219.104.333.068.229.141.453.209.672.073.224.146.417.224.625l.109.307s.016.037.031.078l.032.073.015.037.016.041.005.016.036.078a20.9 20.9 0 0 0 1.25 2.349c.115.182.224.37.349.537a18.03 18.03 0 0 0 1.157 1.437c1.031 1.203 2.182 2.089 3.203 2.781.51.355 1.021.625 1.495.865a18.4 18.4 0 0 0 1.302.588c.401.146.75.287 1.062.375.318.089.589.167.807.209.433.094.667.14.667.14s-.224-.093-.641-.27c-.208-.089-.468-.193-.755-.344a33.31 33.31 0 0 1-.979-.542 25.011 25.011 0 0 1-1.182-.75c-.209-.14-.427-.297-.646-.458a21.818 21.818 0 0 1-2.38-2.203s2.146-1.11 4.245-2.271a177.539 177.539 0 0 0 4.151-2.37s-.563.245-1.417.604c-.849.36-2 .828-3.167 1.276-1.166.453-2.323.86-3.208 1.162-.88.307-1.474.5-1.474.5a16.41 16.41 0 0 1-.708-1.011c-.198-.312-.401-.625-.568-.968a18.565 18.565 0 0 1-.932-2.136l-.032-.088c.011.036 0 0 0 .005l-.01-.042-.052-.146c-.031-.099-.063-.198-.094-.302a3.505 3.505 0 0 1-.109-.338s.526-.245 1.312-.615c.792-.375 1.839-.875 2.88-1.39 2.089-1.021 4.146-2.084 4.146-2.084s-.541.141-1.359.349-1.922.474-3.016.698c-1.093.229-2.203.443-3.047.594-.833.151-1.401.245-1.401.245-.02-.162-.046-.313-.073-.474l-.046-.302c-.016-.11-.021-.209-.032-.313l-.047-.63-.015-.63-.005-.318.005-.313c0-.213 0-.421.01-.635.011-.203.021-.411.037-.625.036-.594.135-1.208.239-1.807 0 0 2.24-.771 4.459-1.599 1.104-.406 2.208-.828 3.041-1.156.828-.323 1.381-.542 1.381-.542s-.131.021-.355.062c-.229.037-.552.094-.942.157-.771.119-1.802.276-2.849.401-2.084.27-4.219.442-4.219.442.047-.156.088-.312.135-.468.047-.162.099-.318.157-.48 1.656-4.994 3.218-10.031 4.369-15.171.974-4.339 1.625-8.74 2.584-13.084 1.765-7.958 4.604-15.656 7.989-23.057 3.323-7.271 7.193-14.287 11.407-21.078a230.3 230.3 0 0 1 5.416-8.339c9.615-14.166 19.328-25.442 24.005-30.635 5.771 12.818 14.787 25.312 23.532 37.432 14.166 19.63 28.812 39.927 28.812 60.839a51.5 51.5 0 0 1-3.958 19.802 51.765 51.765 0 0 1-10.849 16.328 52.393 52.393 0 0 1-7.505 6.312c-2.974 2.052-5.974 4.136-9.563 4.943-5.901 1.328-11.078-1.792-15.396-5.568-.63-.557-1.265-1.052-1.916-1.567-.646-.506-1.287-.985-1.953-1.37-.162-.104-.323-.208-.49-.307-.167-.099-.333-.198-.495-.292-.166-.099-.333-.177-.5-.26-.172-.084-.328-.172-.5-.23a20.702 20.702 0 0 1-.5-.203 1.683 1.683 0 0 0-.255-.083 4.154 4.154 0 0 1-.25-.089c-.083-.031-.167-.057-.25-.088l-.141-.052-.114-.032a33.965 33.965 0 0 1-.464-.125l-.114-.026-.125-.031-.245-.047c-.078-.015-.162-.031-.245-.052-.078-.015-.156-.031-.234-.041a50.955 50.955 0 0 1-.469-.063 4.894 4.894 0 0 0-.464-.068c-.151-.02-.302-.041-.448-.057l-.447-.031c-.292-.026-.584-.021-.87-.021-.141 0-.281.01-.422.01-.136-.005-.276 0-.412 0-.27.006-.531.021-.791.042-.521.042-1.016.125-1.479.203-.922.141-1.73.354-2.396.568-.334.12-.625.193-.875.292-.255.088-.474.161-.646.234a17.14 17.14 0 0 1-.537.224s.193-.031.558-.099c.177-.037.401-.063.661-.099.13-.016.266-.036.417-.047.151-.026.307-.047.474-.073a19.03 19.03 0 0 1 2.359-.14 14.651 14.651 0 0 1 2.183.088l.39.047c.136.016.266.026.401.042.266.041.542.062.818.119l.417.079c.14.031.281.067.421.099.282.062.563.161.855.223.073.011.145.032.213.058.073.015.141.041.214.062.067.016.14.042.208.063l.109.031.115.042c.151.052.307.109.464.166l.119.042c-.036-.01-.005 0-.005 0l.011.005.026.011.057.026.213.093.214.099c.073.032.146.058.219.099.14.084.281.146.427.219.146.063.286.151.432.229.141.089.287.157.432.25.282.193.573.365.86.589.286.203.573.437.864.661.287.219.573.453.865.693l.432.37.438.39c.146.125.291.261.437.396.151.136.297.276.448.412.146.14.292.281.443.411.146.136.297.271.448.412.302.276.609.557.911.838.313.281.63.568.943.86.318.286.646.593.974.864a35.468 35.468 0 0 0 2.099 1.62c.37.266.745.521 1.13.771.385.229.781.453 1.188.666.203.105.401.209.609.308 2.146 1.021 4.391 1.672 6.766 1.812a16.77 16.77 0 0 0 6.114-.75c3.896-1.25 7.328-3.87 10.511-6.364a57.554 57.554 0 0 0 12.213-13.115 57.108 57.108 0 0 0 7.615-16.458 57.004 57.004 0 0 0 2.104-15.375c0-22.698-15.177-43.729-29.854-64.073Z"/>
  <path fill="#737373" d="M249.151 192.276c-.646-3.568-3.693-6.156-7.25-6.156a7.242 7.242 0 0 0-5.203 2.193 7.568 7.568 0 0 0-2.125 4.458c-2.458.349-4.729 1.542-6.458 3.401a11.316 11.316 0 0 0-3 7.031c-1.198.589-2.245 1.521-3.063 2.714-1.437 2.109-1.948 4.823-1.385 7.234-2.526 2.13-4.016 5.333-4.016 8.698 0 1.786.422 3.562 1.214 5.141a11.24 11.24 0 0 0 2.734 3.494c-.901 3.099.156 6.657 2.687 8.86.563.489 1.178.89 1.829 1.192a11.316 11.316 0 0 0 3.015 7.006c1.745 1.875 4.037 3.062 6.521 3.39a7.566 7.566 0 0 0 2.24 4.136 7.27 7.27 0 0 0 5.01 2.005 7.19 7.19 0 0 0 4.448-1.526 7.593 7.593 0 0 0 2.615-3.844 7.581 7.581 0 0 0 .312-2.167v-55.885c0-.463-.042-.927-.125-1.375Zm-1.698 15.458a6.456 6.456 0 0 0-1.094-.968 5.73 5.73 0 0 0-3.442-1.068.912.912 0 0 0-.854 1.13.91.91 0 0 0 .911.682c.797-.02 1.615.23 2.339.735 1.197.838 1.947 2.25 2.119 3.979h.021v10.047a.797.797 0 0 0-.031.224c.01 2.588-1.412 3.734-2.839 3.932-1.781.25-3.911-.896-4.713-3.479-.12-.38-.542-.688-.943-.688-.63 0-1.016.495-.838 1.099 1.057 3.625 4.156 5.224 6.744 4.86a4.95 4.95 0 0 0 2.62-1.209v7.693c-.146 1.453-.729 2.589-1.599 3.11-.661.395-1.479.463-2.443.203a.918.918 0 0 0-1.088.52.902.902 0 0 0 .599 1.219c1.802.49 3.083.084 3.875-.39.234-.141.453-.308.656-.49v10.661c0 .568-.083 1.125-.239 1.662-.704 2.396-2.886 4.068-5.313 4.068-2.521 0-4.703-1.782-5.354-4.209 2.338-.213 4.052-1.01 5.088-2.369 1.016-1.334 1.365-3.172 1.037-5.49a.925.925 0 0 0-1.057-.792.907.907 0 0 0-.75 1.016c.265 1.828.036 3.229-.683 4.172-.718.948-2.021 1.51-3.859 1.666v-.005l-.807-.052c-4.719-.302-8.48-4.323-8.605-9.182.402-.901 1.068-1.542 1.704-1.677a.889.889 0 0 0 .671-.656c.172-.657-.421-1.256-1.088-1.105-1.037.23-2.005 1-2.662 2.136a5.95 5.95 0 0 1-1.052-.74c-1.802-1.562-2.666-4.083-2.281-6.344a8.568 8.568 0 0 0 3.99.99 7.99 7.99 0 0 0 2.687-.458 7.584 7.584 0 0 0 2.302-1.334c2.407-.854 4.438-.401 5.594 1.261 1.24 1.771 1.172 4.317-.078 6.219a.91.91 0 0 0 .01 1.036.913.913 0 0 0 1.495-.021c1.656-2.505 1.729-5.896.073-8.265-1.213-1.74-3.094-2.584-5.281-2.448.484-.855.88-1.896 1.14-3.167.105-.526-.255-.958-.791-.958-.474 0-.943.369-1.047.823-.583 2.604-1.995 4.416-4.037 5.151-1.807.645-3.921.39-5.546-.625l-.5-.381c-2.344-1.776-3.74-4.619-3.74-7.609a9.617 9.617 0 0 1 2.823-6.813c.526 1.157 1.125 2.063 1.812 2.719a.917.917 0 0 0 1.329-.057v-.005a.908.908 0 0 0-.063-1.25c-.578-.552-1.099-1.38-1.557-2.474a1.017 1.017 0 0 0-.073-.13l.021-.016-.193-.615c-.646-2.031-.266-4.437.99-6.281.734-1.073 1.692-1.864 2.776-2.292l.567-.224v-.005c1.771-.651 3.422-.562 4.839.245a.928.928 0 0 0 1.193-.234.91.91 0 0 0-.282-1.334c-1.677-.958-3.614-1.166-5.635-.614.599-3.943 3.604-7.125 7.432-7.844.511 2.964 1.563 4.849 3.208 5.76.688.381 1.469.573 2.329.573.677 0 1.411-.119 2.192-.359.506-.156.792-.693.615-1.188a.928.928 0 0 0-1.136-.552c-1.276.401-2.322.381-3.114-.057-1.099-.609-1.865-2.073-2.276-4.359l-.005-.016c-.308-2.406.911-4.776 3.083-5.88a5.606 5.606 0 0 1 2.547-.62c2.677 0 4.969 1.964 5.458 4.667.063.349.094.703.094 1.057v14.083h.005Zm-10.13 2.849c.375 1.485.26 3.157-.339 4.636a6.905 6.905 0 0 1-2.796 3.317.896.896 0 0 1-1.292-.411l-.016-.031a.893.893 0 0 1 .37-1.11c1.135-.692 1.734-1.677 2.042-2.442a5.853 5.853 0 0 0 .265-3.521.898.898 0 0 1 .526-1.042c.511-.213 1.105.068 1.24.604Z"/>
  <path fill="#FF914D" d="M279.635 213.182c.563-2.411.053-5.125-1.385-7.234-.812-1.193-1.865-2.125-3.057-2.719a11.37 11.37 0 0 0-3-7.026c-1.735-1.864-4-3.052-6.464-3.401a7.561 7.561 0 0 0-2.12-4.458c-1.395-1.417-3.239-2.198-5.208-2.198-3.552 0-6.604 2.594-7.25 6.156a8.159 8.159 0 0 0-.125 1.38v55.886a7.608 7.608 0 0 0 2.927 6.01 7.222 7.222 0 0 0 4.448 1.526c1.87 0 3.646-.713 5.016-2.01a7.578 7.578 0 0 0 2.234-4.13 10.889 10.889 0 0 0 6.521-3.391 11.332 11.332 0 0 0 3.016-7.005 8.153 8.153 0 0 0 1.833-1.198c2.526-2.198 3.583-5.755 2.687-8.854a11.258 11.258 0 0 0 2.73-3.495 11.477 11.477 0 0 0 1.213-5.141c0-3.364-1.49-6.567-4.016-8.698Zm-11.135 6.209a2.945 2.945 0 0 0-1.286 3.979 2.98 2.98 0 0 0 4.005 1.276 2.94 2.94 0 0 0 1.469-1.724h9.083c-.281 2.599-1.615 5-3.682 6.568l-.542.411.245.63c.963 2.5.135 5.646-1.974 7.479-.38.329-.787.605-1.214.823l-3.838-3.338v-1.354a2.953 2.953 0 0 0 1.739-4.162 2.988 2.988 0 0 0-4.005-1.276 2.945 2.945 0 0 0-1.286 3.979 2.958 2.958 0 0 0 1.729 1.459v2.172l4.442 3.864c-.187 4.802-3.921 8.755-8.599 9.057l-.114.006-4.469-3.891v-2.255c.156-.052.302-.11.453-.183a2.953 2.953 0 0 0 1.287-3.979 2.988 2.988 0 0 0-4.005-1.276c-.709.36-1.23.969-1.474 1.724-.24.75-.178 1.552.187 2.25a2.953 2.953 0 0 0 1.734 1.459v3.078l5.344 4.656.12-.135c-.51 2.63-2.792 4.604-5.443 4.604-2.427 0-4.614-1.672-5.317-4.063a5.926 5.926 0 0 1-.235-1.661v-17.334h3.61a2.972 2.972 0 0 0 2.838 2.052c.458 0 .922-.104 1.354-.328a2.942 2.942 0 0 0 1.287-3.974c-.75-1.453-2.547-2.02-4.005-1.281a2.959 2.959 0 0 0-1.469 1.724h-3.615v-17.375h3.615c.047.151.109.302.182.448a2.95 2.95 0 0 0 1.734 1.464c.303.093.61.14.917.14.464 0 .927-.109 1.354-.328a2.95 2.95 0 0 0 1.287-3.979 2.988 2.988 0 0 0-4.005-1.276 2.944 2.944 0 0 0-1.469 1.724h-3.615v-8.182l2.969 3.359h9.302a2.985 2.985 0 0 0 2.672 1.661 2.97 2.97 0 0 0 2.974-2.958c0-1.625-1.333-2.953-2.974-2.953a2.972 2.972 0 0 0-2.927 2.437h-8.224l-3.792-4.286v-6.641c0-.354.031-.713.094-1.057.49-2.708 2.786-4.667 5.458-4.667 2.907 0 5.318 2.339 5.537 5.287l-2.052 2.312a2.969 2.969 0 0 0-1.417-.359 2.97 2.97 0 0 0-2.974 2.958c0 1.63 1.333 2.953 2.974 2.953 1.641 0 2.974-1.328 2.974-2.953 0-.458-.104-.896-.297-1.281l2.052-2.312c4.568.505 8.136 4.5 8.193 9.27l.005.61.568.224c1.083.427 2.041 1.218 2.776 2.297 1.255 1.838 1.635 4.244.989 6.281l-.005.01h-11.135l-5.834 6.115a2.96 2.96 0 0 0-1.463-.386c-1.641 0-2.974 1.329-2.974 2.954a2.97 2.97 0 0 0 2.974 2.958 2.97 2.97 0 0 0 2.974-2.958c0-.438-.099-.855-.271-1.23l5.375-5.64h11.635a9.59 9.59 0 0 1 2.792 6.047h-9.109a3.698 3.698 0 0 0-.188-.448 2.99 2.99 0 0 0-4.005-1.276Zm2.453 2.979a1.152 1.152 0 0 1-2.12.172 1.145 1.145 0 0 1 1.021-1.667c.417 0 .823.224 1.026.62.141.276.167.583.073.875Zm-.568 9.979a1.152 1.152 0 0 1-1.552-.495 1.143 1.143 0 0 1 1.021-1.666c.417 0 .823.223 1.026.619a1.141 1.141 0 0 1-.495 1.542Zm-10.562 8.953a1.162 1.162 0 0 1-1.552-.495 1.135 1.135 0 0 1-.073-.875c.094-.291.297-.531.568-.666.172-.089.349-.131.526-.131.416 0 .823.23 1.026.625.291.563.067 1.25-.495 1.542Zm-1.057-10.989a1.19 1.19 0 0 1 .526-.125 1.14 1.14 0 0 1 .526 2.161 1.154 1.154 0 0 1-1.552-.495 1.148 1.148 0 0 1 .5-1.541Zm0-19.183c.172-.083.349-.125.526-.125.416 0 .823.224 1.026.62a1.14 1.14 0 0 1-.5 1.542c-.271.14-.584.166-.875.073a1.145 1.145 0 0 1-.677-.568 1.148 1.148 0 0 1 .5-1.542Zm7.875-6.005c0-.63.515-1.146 1.151-1.146.635 0 1.156.516 1.156 1.146 0 .63-.521 1.146-1.156 1.146a1.15 1.15 0 0 1-1.151-1.146Zm-5.021-6.969c0 .63-.516 1.141-1.151 1.141a1.146 1.146 0 0 1-1.151-1.141 1.15 1.15 0 0 1 2.302 0Zm-1.172 23.787c0 .63-.521 1.14-1.151 1.14a1.15 1.15 0 0 1-1.156-1.14c0-.636.52-1.146 1.156-1.146.63 0 1.151.51 1.151 1.146Zm-128.907 85.68v7.938h.166l7.75-7.938h4.5l-8.75 8.646 9.334 10.084h-4.688l-8.125-9.209h-.187v9.209h-3.334v-18.73h3.334Zm35.371 9.334c0 2.916-.948 5.291-2.834 7.125-1.875 1.833-4.271 2.75-7.187 2.75-2.875 0-5.24-.901-7.084-2.709-1.849-1.802-2.77-4.156-2.77-7.062 0-1.901.406-3.604 1.229-5.104.817-1.511 1.989-2.693 3.521-3.542 1.526-.844 3.281-1.271 5.27-1.271 2.917 0 5.282.896 7.105 2.688 1.833 1.781 2.75 4.156 2.75 7.125Zm-16.375-.104c0 2.031.588 3.698 1.77 5 1.193 1.307 2.74 1.958 4.646 1.958 1.886 0 3.438-.635 4.646-1.917 1.208-1.276 1.813-2.958 1.813-5.041 0-1.917-.605-3.506-1.813-4.771-1.198-1.276-2.75-1.917-4.667-1.917-1.823 0-3.343.625-4.562 1.875-1.224 1.25-1.833 2.854-1.833 4.813Zm30.137-9.709c2.625 0 4.813.99 6.563 2.959l-2.584 1.916c-1.166-1.234-2.489-1.854-3.958-1.854-1.89 0-3.432.646-4.625 1.938-1.198 1.281-1.792 2.864-1.792 4.75 0 2.031.594 3.698 1.792 5 1.193 1.307 2.735 1.958 4.625 1.958 1.61 0 3.011-.755 4.208-2.271l2.75 1.958c-.807 1.141-1.828 1.98-3.062 2.521a9.663 9.663 0 0 1-3.917.813c-2.948 0-5.333-.917-7.166-2.75-1.823-1.834-2.73-4.172-2.73-7.021 0-2.943.907-5.333 2.73-7.167 1.817-1.833 4.208-2.75 7.166-2.75Zm19.892.479 8.062 18.73h-3.812l-1.75-4.292h-8.125l-1.688 4.292h-3.729l8.146-18.73h2.896Zm-4.479 11.584h5.812l-2.875-7.625-2.937 7.625Zm19.661-11.584v7.938h.167l7.75-7.938h4.5l-8.75 8.646 9.333 10.084h-4.687l-8.125-9.209h-.188v9.209h-3.333v-18.73h3.333Zm25.454 0 8.063 18.73h-3.813l-1.75-4.292h-8.125l-1.687 4.292h-3.729l8.146-18.73h2.895Zm-4.479 11.584h5.813l-2.875-7.625-2.938 7.625Zm17.995-11.584 5.104 14.146 5.271-14.146h3.604l-7.562 18.73h-2.896l-7.354-18.73h3.833Zm20.958 0v11.834c0 1.25.375 2.265 1.125 3.041.76.766 1.781 1.146 3.062 1.146 1.292 0 2.313-.38 3.063-1.146.76-.776 1.145-1.791 1.145-3.041v-11.834h3.334v11.98c0 2.073-.688 3.791-2.063 5.166-1.375 1.375-3.203 2.063-5.479 2.063-2.25 0-4.073-.688-5.458-2.063-1.375-1.375-2.063-3.093-2.063-5.166v-11.98h3.334Zm20.869 0v7.938h.167l7.75-7.938h4.5l-8.75 8.646 9.333 10.084h-4.687l-8.125-9.209h-.188v9.209h-3.333v-18.73h3.333Z"/>
  <path fill="#737373" d="M325.9 307.623v15.709h7.979v3.021h-11.312v-18.73h3.333Zm21.066 0 8.062 18.73h-3.812l-1.75-4.292h-8.125l-1.688 4.292h-3.729l8.146-18.73h2.896Zm-4.48 11.584h5.813l-2.875-7.625-2.938 7.625Zm23.745-11.584c1.709 0 3.068.433 4.084 1.292 1.026.849 1.541 1.99 1.541 3.417 0 .974-.281 1.823-.833 2.541-.557.709-1.365 1.23-2.417 1.563v.042c1.151.14 2.115.625 2.896 1.458.776.823 1.167 1.844 1.167 3.062 0 1.698-.62 3.016-1.854 3.959-1.24.932-2.938 1.396-5.104 1.396h-6.896v-18.73h7.416Zm-.937 7.625c1.01 0 1.802-.208 2.375-.625.568-.427.854-1.005.854-1.729 0-1.609-1.161-2.416-3.479-2.416h-2.896v4.77h3.146Zm.042 8.25c2.666 0 4-.916 4-2.75 0-.958-.323-1.635-.959-2.041-.64-.401-1.594-.604-2.854-.604h-3.375v5.395h3.188Zm-245.823 14.801c1.026 0 1.937.182 2.729.542.802.364 1.448.87 1.937 1.521l-1.375.979a3.692 3.692 0 0 0-1.479-1.188 4.19 4.19 0 0 0-1.812-.416c-1.417 0-2.605.541-3.563 1.625-.958 1.072-1.453 2.364-1.479 3.875 0 1.572.479 2.875 1.437 3.916.959 1.031 2.157 1.552 3.605 1.563 1.567 0 2.838-.61 3.812-1.834l1.188.98c-1.167 1.541-2.834 2.312-5 2.312-1.933 0-3.532-.667-4.792-2-1.266-1.333-1.912-2.979-1.938-4.937 0-1.969.636-3.615 1.917-4.938 1.276-1.318 2.88-1.984 4.813-2Zm13.321 0c1.984 0 3.625.656 4.917 1.958 1.291 1.308 1.948 2.969 1.979 4.98-.016 2.057-.682 3.724-2 5-1.323 1.281-2.953 1.921-4.896 1.937-2 0-3.646-.651-4.937-1.958-1.292-1.318-1.954-2.979-1.98-4.979 0-2 .646-3.651 1.938-4.959 1.292-1.302 2.948-1.963 4.979-1.979Zm-5.229 6.938c0 1.583.489 2.89 1.479 3.916 1 1.016 2.25 1.537 3.75 1.563 1.484 0 2.719-.521 3.708-1.563.985-1.041 1.49-2.344 1.521-3.916 0-1.526-.489-2.818-1.458-3.875-.974-1.053-2.24-1.594-3.792-1.625-1.531.015-2.771.552-3.729 1.604-.958 1.057-1.453 2.354-1.479 3.896Zm16.976-6.605 4.479 10.355h.042l4.52-10.355h2.271v13.209h-1.562v-11.084h-.042l-4.75 11.084h-.958l-4.729-11.084h-.042v11.084h-1.563v-13.209h2.334Zm18.588 0c1.427 0 2.531.308 3.312.917.792.599 1.198 1.495 1.229 2.688 0 1.166-.39 2.062-1.166 2.687-.766.625-1.792.953-3.084.979h-2.729v5.938h-1.562v-13.209h4Zm.291 5.813c.792 0 1.417-.188 1.875-.563.469-.385.709-.927.709-1.625 0-.677-.229-1.208-.688-1.583-.458-.385-1.094-.583-1.896-.583h-2.729v4.354h2.729Zm8.272-5.813v7.938c0 1.349.281 2.37.854 3.062.583.698 1.438 1.058 2.563 1.084 1.135-.011 1.984-.365 2.541-1.063.568-.708.86-1.708.875-3v-8.021h1.584v8.23c0 1.682-.438 2.989-1.313 3.916-.875.917-2.104 1.38-3.687 1.396-1.558 0-2.771-.463-3.646-1.396-.875-.942-1.323-2.255-1.334-3.937v-8.209h1.563Zm20.488 0v1.459h-4.354v11.75h-1.563v-11.75h-4.375v-1.459h10.292Zm7.625 0 5.605 13.209h-1.813l-1.354-3.25h-6.604l-1.375 3.25h-1.771l5.833-13.209h1.479Zm-.812 2-2.75 6.5h5.396l-2.604-6.5h-.042Zm17.03-2v1.459h-4.354v11.75h-1.563v-11.75h-4.375v-1.459h10.292Zm3.417 0v13.209h-1.563v-13.209h1.563Zm9.434-.333c1.984 0 3.625.656 4.916 1.958 1.292 1.308 1.948 2.969 1.98 4.98-.016 2.057-.683 3.724-2 5-1.323 1.281-2.954 1.921-4.896 1.937-2 0-3.646-.651-4.938-1.958-1.291-1.318-1.953-2.979-1.979-4.979 0-2 .646-3.651 1.938-4.959 1.291-1.302 2.947-1.963 4.979-1.979Zm-5.229 6.938c0 1.583.489 2.89 1.479 3.916 1 1.016 2.25 1.537 3.75 1.563 1.484 0 2.718-.521 3.708-1.563.984-1.041 1.49-2.344 1.521-3.916 0-1.526-.49-2.818-1.458-3.875-.974-1.053-2.24-1.594-3.792-1.625-1.531.015-2.771.552-3.729 1.604-.959 1.057-1.453 2.354-1.479 3.896Zm16.621-6.605 7.646 10.959h.042v-10.959h1.562v13.209h-1.979l-7.646-10.979h-.041v10.979h-1.563v-13.209h1.979Zm18.307 0 5.604 13.209h-1.813l-1.354-3.25h-6.604l-1.375 3.25H251.3l5.833-13.209h1.48Zm-.813 2-2.75 6.5h5.396l-2.604-6.5h-.042Zm9.738-2v11.75h6.042v1.459h-7.604v-13.209h1.562Zm19.098-.333c1.985 0 3.625.656 4.917 1.958 1.292 1.308 1.948 2.969 1.979 4.98-.016 2.057-.682 3.724-2 5-1.323 1.281-2.953 1.921-4.896 1.937-2 0-3.646-.651-4.937-1.958-1.292-1.318-1.953-2.979-1.979-4.979 0-2 .645-3.651 1.937-4.959 1.292-1.302 2.948-1.963 4.979-1.979Zm-5.229 6.938c0 1.583.49 2.89 1.479 3.916 1 1.016 2.25 1.537 3.75 1.563 1.485 0 2.719-.521 3.709-1.563.984-1.041 1.489-2.344 1.52-3.916 0-1.526-.489-2.818-1.458-3.875-.974-1.053-2.24-1.594-3.792-1.625-1.531.015-2.77.552-3.729 1.604-.958 1.057-1.453 2.354-1.479 3.896Zm16.622-6.605 7.646 10.959h.041v-10.959h1.563v13.209H305.3l-7.646-10.979h-.042v10.979h-1.562v-13.209h1.979Zm18.494-.333c1.026 0 1.937.182 2.729.542.802.364 1.448.87 1.937 1.521l-1.375.979a3.692 3.692 0 0 0-1.479-1.188 4.19 4.19 0 0 0-1.812-.416c-1.417 0-2.605.541-3.563 1.625-.958 1.072-1.453 2.364-1.479 3.875 0 1.572.479 2.875 1.437 3.916.959 1.031 2.157 1.552 3.605 1.563 1.567 0 2.838-.61 3.812-1.834l1.188.98c-1.167 1.541-2.834 2.312-5 2.312-1.933 0-3.532-.667-4.792-2-1.266-1.333-1.912-2.979-1.938-4.937 0-1.969.636-3.615 1.917-4.938 1.276-1.318 2.88-1.984 4.813-2Zm13.321 0c1.984 0 3.625.656 4.917 1.958 1.291 1.308 1.948 2.969 1.979 4.98-.016 2.057-.682 3.724-2 5-1.323 1.281-2.953 1.921-4.896 1.937-2 0-3.646-.651-4.937-1.958-1.292-1.318-1.954-2.979-1.98-4.979 0-2 .646-3.651 1.938-4.959 1.292-1.302 2.948-1.963 4.979-1.979Zm-5.229 6.938c0 1.583.489 2.89 1.479 3.916 1 1.016 2.25 1.537 3.75 1.563 1.484 0 2.719-.521 3.708-1.563.985-1.041 1.49-2.344 1.521-3.916 0-1.526-.489-2.818-1.458-3.875-.974-1.053-2.24-1.594-3.792-1.625-1.531.015-2.771.552-3.729 1.604-.958 1.057-1.453 2.354-1.479 3.896Zm16.205-6.605v11.75h6.042v1.459h-7.604v-13.209h1.562Zm13.911-.333c1.985 0 3.625.656 4.917 1.958 1.292 1.308 1.948 2.969 1.979 4.98-.015 2.057-.682 3.724-2 5-1.323 1.281-2.953 1.921-4.896 1.937-2 0-3.645-.651-4.937-1.958-1.292-1.318-1.953-2.979-1.979-4.979 0-2 .646-3.651 1.937-4.959 1.292-1.302 2.948-1.963 4.979-1.979Zm-5.229 6.938c0 1.583.49 2.89 1.479 3.916 1 1.016 2.25 1.537 3.75 1.563 1.485 0 2.719-.521 3.709-1.563.984-1.041 1.489-2.344 1.521-3.916 0-1.526-.49-2.818-1.459-3.875-.974-1.053-2.239-1.594-3.791-1.625-1.532.015-2.771.552-3.73 1.604-.958 1.057-1.453 2.354-1.479 3.896Zm20.976-6.938c1.959 0 3.511.578 4.667 1.729l-1.167 1.229a4.777 4.777 0 0 0-1.646-1.125 5.066 5.066 0 0 0-1.958-.395c-1.515 0-2.771.531-3.771 1.583-1 1.042-1.515 2.349-1.541 3.917.01 1.625.526 2.937 1.541 3.937 1.026 1 2.334 1.516 3.917 1.542 1.151 0 2.25-.25 3.292-.75v-4.063h-3.042v-1.458h4.604v6.5c-1.515.823-3.161 1.229-4.937 1.229-2.084 0-3.782-.646-5.084-1.937-1.291-1.303-1.953-2.969-1.979-5 .011-2.026.688-3.678 2.021-4.959 1.333-1.291 3.026-1.948 5.083-1.979Zm8.369.333 3.708 5.959 3.834-5.959h1.875l-4.917 7.521v5.688h-1.583v-5.688l-4.917-7.521h2Z"/>
</svg>
