<?xml version="1.0" encoding="UTF-8"?>
<svg xmlns="http://www.w3.org/2000/svg" viewBox="0 0 530.55 190.61">
  <defs>
    <style>
      .cls-1 {
        fill: #78a4c8;
      }

      .cls-1, .cls-2, .cls-3, .cls-4, .cls-5, .cls-6, .cls-7, .cls-8, .cls-9, .cls-10 {
        stroke-width: 0px;
      }

      .cls-2 {
        fill: #5577a2;
      }

      .cls-3 {
        fill: #e0dfde;
      }

      .cls-4 {
        fill: #efd9ca;
      }

      .cls-5 {
        fill: #eed900;
      }

      .cls-6 {
        fill: #aad0d0;
      }

      .cls-7 {
        fill: #d89970;
      }

      .cls-8 {
        fill: #070f19;
      }

      .cls-9 {
        fill: #acacac;
      }

      .cls-10 {
        fill: #cc141a;
      }
    </style>
  </defs>
  <g id="Nachbau_E4" data-name="Nachbau E4">
    <g>
      <path class="cls-3" d="m48.79,40.05c1.6-.12,8.74-.58,17.33,2.17,4.16,1.33,9.85,3.16,15.09,8.37,1.74,1.73,5.51,5.57,7.32,11.8,2.01,6.9.45,12.68-.6,16.59-1.95,7.24-5.48,12.01-7.92,15.24-1.11,1.47-5.96,7.73-14.56,13.3-7.4,4.79-14.38,7-18.91,8.07-7.44,1.76-20.21,4.79-32.42-1.79-3.01-1.62-8.75-4.72-11.95-11.21-5.25-10.62.21-22.4,3.88-30.33,5.66-12.22,14.02-19.11,16.73-21.22,4.35-3.37,13.12-9.99,26-10.99Z"/>
      <path class="cls-9" d="m45.29,57.89c.94-.07,5.09-.34,10.1,1.27,2.43.78,5.74,1.84,8.79,4.87,1.02,1.01,3.21,3.24,4.27,6.88,1.17,4.02.26,7.39-.35,9.66-1.14,4.22-3.19,7-4.61,8.88-.65.85-3.47,4.5-8.48,7.75-4.31,2.79-8.38,4.08-11.02,4.7-4.33,1.03-11.77,2.79-18.89-1.04-1.75-.94-5.1-2.75-6.96-6.53-3.06-6.19.12-13.05,2.26-17.67,3.3-7.12,8.17-11.13,9.75-12.36,2.53-1.96,7.64-5.82,15.15-6.4Z"/>
    </g>
  </g>
  <g id="Nachbau_E3" data-name="Nachbau E3">
    <g>
      <path class="cls-4" d="m102.69,26.1c2.65-.2,14.42-.96,28.61,3.59,6.87,2.2,16.26,5.21,24.91,13.81,2.88,2.86,9.09,9.19,12.08,19.48,3.32,11.39.75,20.93-.99,27.38-3.22,11.95-9.05,19.83-13.07,25.16-1.83,2.42-9.83,12.76-24.04,21.95-12.21,7.9-23.74,11.55-31.21,13.32-12.27,2.91-33.35,7.91-53.52-2.96-4.96-2.67-14.44-7.78-19.73-18.5-8.66-17.53.34-36.96,6.41-50.06,9.35-20.18,23.14-31.54,27.62-35.02,7.17-5.57,21.65-16.5,42.91-18.14Z"/>
      <path class="cls-7" d="m96.91,55.53c1.54-.12,8.4-.56,16.67,2.09,4,1.28,9.48,3.04,14.51,8.05,1.68,1.67,5.29,5.35,7.04,11.35,1.93,6.64.44,12.19-.57,15.95-1.87,6.96-5.27,11.55-7.62,14.66-1.06,1.41-5.73,7.43-14,12.79-7.12,4.6-13.83,6.73-18.18,7.76-7.15,1.7-19.43,4.61-31.18-1.72-2.89-1.56-8.41-4.53-11.49-10.78-5.05-10.21.2-21.54,3.74-29.17,5.45-11.76,13.48-18.38,16.09-20.4,4.18-3.24,12.61-9.61,25-10.57Z"/>
    </g>
  </g>
  <g id="Nachbau_E2" data-name="Nachbau E2">
    <g>
      <path class="cls-1" d="m155.96,20.54c3.16-.24,17.2-1.15,34.14,4.28,8.2,2.63,19.41,6.22,29.72,16.48,3.43,3.41,10.84,10.96,14.42,23.25,3.96,13.59.89,24.98-1.18,32.66-3.84,14.26-10.8,23.66-15.6,30.02-2.18,2.89-11.73,15.22-28.68,26.19-14.58,9.43-28.33,13.78-37.24,15.89-14.65,3.47-39.8,9.44-63.86-3.53-5.92-3.19-17.23-9.29-23.54-22.07-10.33-20.92.41-44.11,7.65-59.74,11.15-24.08,27.61-37.64,32.96-41.79,8.56-6.64,25.84-19.68,51.2-21.64Z"/>
      <path class="cls-8" d="m149.07,55.66c1.84-.14,10.02-.67,19.89,2.49,4.78,1.53,11.31,3.62,17.32,9.6,2,1.99,6.32,6.39,8.4,13.54,2.31,7.92.52,14.55-.69,19.03-2.24,8.31-6.29,13.78-9.09,17.49-1.27,1.68-6.83,8.87-16.71,15.26-8.49,5.49-16.5,8.03-21.69,9.26-8.53,2.02-23.19,5.5-37.2-2.06-3.45-1.86-10.04-5.41-13.72-12.86-6.02-12.19.24-25.7,4.46-34.8,6.5-14.03,16.09-21.93,19.2-24.35,4.99-3.87,15.05-11.47,29.83-12.61Z"/>
    </g>
  </g>
  <g id="Nachbau_E1" data-name="Nachbau E1">
    <path class="cls-6" d="m217.86,17.07c3.58-.28,19.49-1.3,38.67,4.85,9.29,2.98,21.98,7.04,33.67,18.67,3.89,3.87,12.28,12.42,16.33,26.33,4.48,15.4,1.01,28.29-1.33,37-4.35,16.15-12.23,26.8-17.67,34-2.47,3.27-13.29,17.24-32.49,29.67-16.51,10.68-32.09,15.61-42.18,18-16.59,3.94-45.08,10.69-72.33-4-6.7-3.61-19.51-10.52-26.67-25-11.71-23.69.46-49.96,8.67-67.67,12.63-27.27,31.28-42.64,37.33-47.33,9.7-7.52,29.27-22.3,58-24.51Z"/>
    <path class="cls-2" d="m210.05,56.86c2.09-.16,11.35-.76,22.53,2.82,5.41,1.73,12.81,4.1,19.61,10.88,2.26,2.25,7.15,7.23,9.52,15.34,2.61,8.97.59,16.48-.78,21.56-2.53,9.41-7.12,15.61-10.29,19.81-1.44,1.91-7.74,10.05-18.93,17.28-9.62,6.22-18.69,9.09-24.57,10.49-9.66,2.29-26.26,6.23-42.14-2.33-3.91-2.11-11.37-6.13-15.54-14.56-6.82-13.8.27-29.11,5.05-39.42,7.36-15.89,18.22-24.84,21.75-27.58,5.65-4.38,17.05-12.99,33.79-14.28Z"/>
  </g>
  <g id="stripes">
    <path class="cls-5" d="m209.31,37.93c-2.37.31-3.41-3.18-4.52-5.34-1.24-2.41-3.03-6.61-3.84-13.83-.61-5.37-1.02-9.55,1.29-13.09.57-.87,1.69-2.53,3.67-2.9,1.25-.23,3.1,0,3.82,1.13.97,1.51-.85,3.4-1.82,6.76-1.23,4.26-.31,8.05.33,10.67,1.39,5.69,3.23,7.06,3.88,11.39.48,3.17,1.16,4.68-2.81,5.2Z"/>
    <path class="cls-5" d="m196.41,42.79c2.01-1.29.57-4.63.03-6.99-.6-2.64-1.93-7.01-5.94-13.07-2.99-4.5-5.36-7.97-9.4-9.2-1-.3-2.92-.85-4.67.14-1.11.62-2.37,1.99-2.2,3.33.23,1.78,2.83,2.06,5.74,4.01,3.68,2.47,5.41,5.97,6.6,8.39,2.59,5.26,2.07,7.49,4.35,11.22,1.67,2.73,2.12,4.33,5.49,2.18Z"/>
    <path class="cls-5" d="m202.89,40.54c-2.31.62-4.1-2.53-5.17-4.7-1.32-2.66-2.86-6.62-5.61-13.21-2.08-4.99-5.25-10.56-3.42-14.37.45-.94.83-1.67,2.75-2.29,1.21-.39,3.53-.64,4,.62.88,2.38.79,5.21,1.55,8.62.99,4.46,1.71,6.5,2.68,9.02,2.12,5.46,4.12,6.58,5.33,10.79.89,3.08,1.76,4.49-2.11,5.52Z"/>
    <path class="cls-10" d="m179.94,49.1c.08-3.72-2.82-5.4-8.77-12.59-3.49-4.22-4.75-6.37-7.42-6.59-.19-.02-2.69-.19-3.78,1.33-.92,1.28-1.56,4.18.43,5.27,5.13,2.82,10.29,10.07,14.5,15.81.94,1.29,2.81.73,3.75.09,1.24-.84,1.28-2.74,1.29-3.33Z"/>
    <path class="cls-2" d="m233.38,36.69c-2.14-.62-1.61-4.2-1.67-6.59-.07-2.67.12-7.19,2.37-14.09,1.68-5.13,3.03-9.11,6.44-11.46.84-.58,2.47-1.67,4.3-1.25,1.16.26,2.64,1.18,2.79,2.49.21,1.75-2.11,2.78-4.31,5.48-2.79,3.42-3.54,7.23-4.07,9.87-1.14,5.73-.13,7.68-1.34,11.87-.89,3.07-.92,4.71-4.51,3.68Z"/>
    <path class="cls-2" d="m226.75,36.27c-2.27-.28-2.66-3.86-2.79-6.27-.16-2.96-.04-7.19.02-14.31.04-5.39-.66-11.72,2.39-14.57.75-.7,1.36-1.24,3.29-1.1,1.21.08,3.36.72,3.29,2.06-.12,2.52-1.27,5.11-1.88,8.56-.8,4.5-.94,6.65-1.03,9.34-.18,5.84,1.16,7.62.64,11.96-.38,3.18-.14,4.81-3.93,4.33Z"/>
  </g>
  <g id="Nachbau_Schrift" data-name="Nachbau Schrift">
    <g>
      <path class="cls-2" d="m344.79,72.58c-2.27,0-4.21-.47-5.81-1.4s-2.83-2.28-3.67-4.04c-.85-1.76-1.27-3.89-1.27-6.4v-23.51c0-2.52.42-4.67,1.27-6.43.85-1.76,2.07-3.11,3.67-4.04,1.6-.93,3.54-1.4,5.81-1.4s4.24.47,5.84,1.4c1.6.93,2.82,2.28,3.66,4.04.84,1.76,1.26,3.89,1.26,6.4v1.97h-6.11v-1.97c0-1.27-.18-2.35-.54-3.23-.36-.88-.89-1.55-1.58-2.02-.69-.47-1.53-.7-2.53-.7-1.46,0-2.6.52-3.42,1.56-.82,1.04-1.23,2.51-1.23,4.42v23.51c0,1.89.41,3.35,1.23,4.39.82,1.04,1.96,1.56,3.42,1.56s2.63-.52,3.44-1.56c.81-1.04,1.21-2.5,1.21-4.39v-1.97h6.11v1.97c0,2.5-.42,4.63-1.26,6.4-.84,1.76-2.06,3.11-3.66,4.04s-3.55,1.4-5.84,1.4Z"/>
      <path class="cls-2" d="m361.28,72.1V25.8h6.05v46.3h-6.05Zm2.83-19.57v-5.73h8.53c1.63,0,2.9-.45,3.8-1.35.9-.9,1.35-2.16,1.35-3.77v-4.71c0-1.72-.45-3.05-1.35-4.01s-2.17-1.43-3.8-1.43h-8.53v-5.73h7.99c2.48,0,4.6.41,6.35,1.23,1.75.82,3.09,2.01,4.01,3.58.92,1.57,1.38,3.47,1.38,5.7v5.41c0,2.29-.46,4.24-1.38,5.85-.92,1.61-2.26,2.84-4.01,3.69-1.75.85-3.87,1.27-6.35,1.27h-7.99Zm14.41,19.57l-6.46-21,5.7-1.46,7.38,22.46h-6.62Z"/>
      <path class="cls-2" d="m401.47,72.58c-2.27,0-4.21-.47-5.81-1.4s-2.83-2.28-3.67-4.04c-.85-1.76-1.27-3.89-1.27-6.4v-23.51c0-2.52.42-4.67,1.27-6.43.85-1.76,2.07-3.11,3.67-4.04,1.6-.93,3.54-1.4,5.81-1.4s4.24.47,5.84,1.4c1.6.93,2.82,2.28,3.66,4.04.84,1.76,1.26,3.89,1.26,6.4v1.97h-6.11v-1.97c0-1.27-.18-2.35-.54-3.23-.36-.88-.89-1.55-1.58-2.02-.69-.47-1.53-.7-2.53-.7-1.46,0-2.6.52-3.42,1.56-.82,1.04-1.23,2.51-1.23,4.42v23.51c0,1.89.41,3.35,1.23,4.39.82,1.04,1.96,1.56,3.42,1.56s2.63-.52,3.44-1.56c.81-1.04,1.21-2.5,1.21-4.39v-1.97h6.11v1.97c0,2.5-.42,4.63-1.26,6.4-.84,1.76-2.06,3.11-3.66,4.04s-3.55,1.4-5.84,1.4Z"/>
      <path class="cls-2" d="m431.06,77.57V20.36h6.05v57.21h-6.05Z"/>
      <path class="cls-2" d="m467.52,72.58c-2.42,0-4.47-.42-6.14-1.26-1.68-.84-2.95-2.07-3.82-3.69-.87-1.62-1.3-3.6-1.3-5.93v-2.29h6.05v2.07c0,1.68.45,2.96,1.35,3.87.9.9,2.19,1.35,3.87,1.35s2.88-.45,3.75-1.35c.87-.9,1.3-2.19,1.3-3.87v-4.04c0-1.25-.31-2.26-.94-3.04-.62-.77-1.44-1.44-2.43-1.99-1-.55-2.07-1.08-3.21-1.59-1.15-.51-2.29-1.07-3.42-1.69s-2.18-1.36-3.13-2.24c-.96-.88-1.72-1.97-2.29-3.28-.57-1.3-.86-2.92-.86-4.85v-2.67c0-3.46.96-6.11,2.9-7.96s4.7-2.77,8.3-2.77,6.22.94,8.08,2.82c1.87,1.88,2.8,4.56,2.8,8.03v2.42h-6.05v-2.16c0-1.7-.41-2.99-1.24-3.88-.83-.89-2.03-1.34-3.6-1.34-1.68,0-2.95.42-3.83,1.27-.88.85-1.32,2.06-1.32,3.63v2.9c0,1.36.34,2.45,1.02,3.26.68.82,1.56,1.5,2.66,2.04s2.24,1.09,3.45,1.64c1.08.49,2.16,1,3.23,1.54,1.07.54,2.06,1.21,2.96,2,.9.8,1.62,1.83,2.16,3.1s.81,2.89.81,4.84v4.23c0,3.5-.96,6.19-2.86,8.07s-4.66,2.82-8.24,2.82Z"/>
      <path class="cls-2" d="m484.67,72.1V25.83h6.05v46.27h-6.05Zm3.18-40.54v-5.73h16.71v5.73h-16.71Zm0,20.84v-5.73h15.11v5.73h-15.11Z"/>
      <path class="cls-2" d="m508.7,72.1V25.83h6.05v46.27h-6.05Zm3.82,0v-5.73h7.61c1.38,0,2.44-.34,3.18-1.03.74-.69,1.11-1.65,1.11-2.88v-6.05c0-1.76-.42-3.12-1.26-4.09-.84-.96-1.96-1.45-3.36-1.45h-7.29v-5.73h7.29c1.27,0,2.26-.43,2.96-1.3.7-.87,1.05-2.1,1.05-3.69v-4.71c0-1.23-.35-2.18-1.05-2.86-.7-.68-1.67-1.02-2.9-1.02h-7.35v-5.73h7.25c3.22,0,5.71.81,7.46,2.42,1.75,1.61,2.62,3.89,2.62,6.84v4.9c0,2.19-.51,3.98-1.54,5.39-1.03,1.41-2.48,2.31-4.34,2.69,2.06.34,3.65,1.24,4.79,2.7,1.13,1.46,1.7,3.37,1.7,5.73v6.11c0,3.01-.85,5.35-2.56,7-1.71,1.65-4.13,2.48-7.27,2.48h-8.11Z"/>
    </g>
    <g>
      <path class="cls-2" d="m358.62,88.38v85.2h-11.54v-72.95l-12.54,7.73v-11.95l12.01-8.03h12.07Z"/>
      <path class="cls-2" d="m395.42,174.45c-6.52,0-11.58-1.84-15.18-5.51-3.59-3.67-5.59-9.08-5.98-16.23v-.06h11.54v.06c.16,3.52,1.05,6.18,2.7,8s3.95,2.72,6.91,2.72,5.49-.99,7.21-2.96c1.72-1.97,2.58-4.75,2.58-8.35v-14.71c0-3.55-.83-6.31-2.49-8.26-1.66-1.95-3.99-2.93-7-2.93-2.15,0-4.01.62-5.6,1.85s-2.72,2.98-3.43,5.24h-10.55v-44.94h39.02v10.96h-27.48v19.8c1.33-1.25,2.85-2.23,4.57-2.93,1.72-.7,3.48-1.05,5.27-1.05,6.13,0,10.87,1.94,14.21,5.83,3.34,3.89,5.01,9.37,5.01,16.44v14.71c0,7.11-1.86,12.61-5.57,16.49-3.71,3.89-8.96,5.83-15.76,5.83Z"/>
      <path class="cls-2" d="m451.21,174.45c-4.84,0-8.91-.84-12.19-2.52s-5.78-4.25-7.5-7.71c-1.72-3.46-2.7-7.82-2.93-13.1h11.66c.2,4.26,1.21,7.35,3.05,9.29,1.84,1.93,4.47,2.9,7.91,2.9,3.24,0,5.76-.89,7.56-2.67,1.8-1.78,2.7-4.29,2.7-7.53v-7.21c0-3.55-.82-6.31-2.46-8.26-1.64-1.95-3.96-2.93-6.97-2.93h-5.98v-10.9h5.98c2.58,0,4.56-.81,5.95-2.43,1.39-1.62,2.08-3.92,2.08-6.88v-7.21c0-2.77-.77-4.91-2.31-6.42-1.54-1.5-3.74-2.26-6.59-2.26s-5.18.97-6.74,2.9c-1.56,1.93-2.5,5.03-2.81,9.29h-11.6c.47-7.93,2.47-13.8,6.01-17.61,3.54-3.81,8.68-5.71,15.44-5.71,6.41,0,11.37,1.73,14.88,5.19s5.27,8.35,5.27,14.68v6.68c0,3.16-.9,6.05-2.7,8.67-1.8,2.62-4.34,4.75-7.62,6.39,3.71,1.05,6.59,3.11,8.64,6.15s3.08,6.82,3.08,11.31v6.74c0,6.72-1.9,11.92-5.71,15.62s-9.17,5.54-16.08,5.54Z"/>
      <path class="cls-2" d="m508.87,174.45c-7.11,0-12.5-1.93-16.17-5.8-3.67-3.87-5.51-9.22-5.51-16.05v-43.36c0-6.87,1.85-12.23,5.57-16.05,3.71-3.83,9.08-5.74,16.11-5.74s12.4,1.91,16.11,5.74c3.71,3.83,5.57,9.18,5.57,16.05v43.36c0,6.88-1.86,12.24-5.57,16.08-3.71,3.85-9.08,5.77-16.11,5.77Zm0-10.96c3.44,0,5.99-.96,7.65-2.87,1.66-1.91,2.49-4.59,2.49-8.03v-43.36c0-3.44-.83-6.11-2.49-8.03-1.66-1.91-4.21-2.87-7.65-2.87s-5.99.96-7.65,2.87c-1.66,1.91-2.49,4.59-2.49,8.03v43.36c0,3.44.83,6.11,2.49,8.03,1.66,1.91,4.21,2.87,7.65,2.87Z"/>
    </g>
  </g>
</svg>